<?xml version="1.0" encoding="UTF-8" standalone="no"?>
<!-- Created with Inkscape (http://www.inkscape.org/) -->

<svg
   xmlns:dc="http://purl.org/dc/elements/1.1/"
   xmlns:cc="http://creativecommons.org/ns#"
   xmlns:rdf="http://www.w3.org/1999/02/22-rdf-syntax-ns#"
   xmlns:svg="http://www.w3.org/2000/svg"
   xmlns="http://www.w3.org/2000/svg"
   xmlns:xlink="http://www.w3.org/1999/xlink"
   xmlns:sodipodi="http://sodipodi.sourceforge.net/DTD/sodipodi-0.dtd"
   xmlns:inkscape="http://www.inkscape.org/namespaces/inkscape"
   width="210mm"
   height="297mm"
   viewBox="0 0 744.09448819 1052.3622047"
   id="svg2"
   version="1.1"
   inkscape:version="0.91 r13725"
   sodipodi:docname="avatar.circle.svg"
   inkscape:export-filename="/home/timo/Documents/avatar.circlex512.png"
   inkscape:export-xdpi="291.86337"
   inkscape:export-ydpi="291.86337">
  <defs
     id="defs4">
    <linearGradient
       inkscape:collect="always"
       id="linearGradient10225">
      <stop
         style="stop-color:#000000;stop-opacity:1;"
         offset="0"
         id="stop10227" />
      <stop
         style="stop-color:#000000;stop-opacity:0;"
         offset="1"
         id="stop10229" />
    </linearGradient>
    <linearGradient
       inkscape:collect="always"
       xlink:href="#linearGradient10225"
       id="linearGradient10231"
       x1="68.36"
       y1="946.64485"
       x2="118.00216"
       y2="946.64485"
       gradientUnits="userSpaceOnUse" />
    <filter
       inkscape:collect="always"
       style="color-interpolation-filters:sRGB"
       id="filter10364"
       x="-0.061441142"
       width="1.1228823"
       y="-0.064314665"
       height="1.1286293">
      <feGaussianBlur
         inkscape:collect="always"
         stdDeviation="0.24118"
         id="feGaussianBlur10366" />
    </filter>
    <filter
       inkscape:collect="always"
       style="color-interpolation-filters:sRGB"
       id="filter10368"
       x="-0.040937246"
       width="1.0818745"
       y="-0.064314662"
       height="1.1286293">
      <feGaussianBlur
         inkscape:collect="always"
         stdDeviation="0.24118"
         id="feGaussianBlur10370" />
    </filter>
    <filter
       inkscape:collect="always"
       style="color-interpolation-filters:sRGB"
       id="filter10372"
       x="-0.27953525"
       width="1.5590705"
       y="-0.064314665"
       height="1.1286293">
      <feGaussianBlur
         inkscape:collect="always"
         stdDeviation="0.24118"
         id="feGaussianBlur10374" />
    </filter>
    <filter
       inkscape:collect="always"
       style="color-interpolation-filters:sRGB"
       id="filter10376"
       x="-0.10219281"
       width="1.2043856"
       y="-0.064314666"
       height="1.1286293">
      <feGaussianBlur
         inkscape:collect="always"
         stdDeviation="0.24118"
         id="feGaussianBlur10378" />
    </filter>
  </defs>
  <sodipodi:namedview
     id="base"
     pagecolor="#ffffff"
     bordercolor="#666666"
     borderopacity="1.0"
     inkscape:pageopacity="0.0"
     inkscape:pageshadow="2"
     inkscape:zoom="2.8284271"
     inkscape:cx="71.704371"
     inkscape:cy="98.613001"
     inkscape:document-units="px"
     inkscape:current-layer="g11228"
     showgrid="false"
     inkscape:window-width="2480"
     inkscape:window-height="1403"
     inkscape:window-x="80"
     inkscape:window-y="0"
     inkscape:window-maximized="1" />
  <metadata
     id="metadata7">
    <rdf:RDF>
      <cc:Work
         rdf:about="">
        <dc:format>image/svg+xml</dc:format>
        <dc:type
           rdf:resource="http://purl.org/dc/dcmitype/StillImage" />
        <dc:title />
      </cc:Work>
    </rdf:RDF>
  </metadata>
  <g
     style="display:inline"
     inkscape:label="Circle"
     id="g11228"
     inkscape:groupmode="layer"
     sodipodi:insensitive="true">
    <circle
       style="opacity:1;fill:#69bee8;fill-opacity:1;fill-rule:nonzero;stroke:#464d51;stroke-width:0.96187496;stroke-miterlimit:4;stroke-dasharray:none;stroke-opacity:1"
       id="path11294"
       cx="64"
       cy="988.36218"
       r="78.451065" />
  </g>
  <g
     inkscape:groupmode="layer"
     id="layer3"
     inkscape:label="Background"
     style="display:inline"
     sodipodi:insensitive="true">
    <path
       id="circle11414"
       style="display:inline;opacity:1;fill:#76b341;fill-opacity:1;fill-rule:nonzero;stroke:#464d51;stroke-opacity:1"
       sodipodi:type="arc"
       sodipodi:cx="64"
       sodipodi:cy="988.36218"
       sodipodi:rx="78.451065"
       sodipodi:ry="78.451065"
       sodipodi:start="0.93235489"
       sodipodi:end="2.2092378"
       d="m 110.75249,1051.3604 a 78.451065,78.451065 0 0 1 -93.504981,0"
       sodipodi:open="true" />
  </g>
  <g
     inkscape:label="Icon"
     inkscape:groupmode="layer"
     id="layer1"
     style="display:inline"
     sodipodi:insensitive="true">
    <g
       id="g3550"
       transform="matrix(1.4,0,0,1.4,19.200001,961.7622)">
      <g
         id="g4"
         style="fill:#83bf4f">
        <ellipse
           id="ellipse6"
           ry="15.2"
           rx="15.8"
           cy="38.299999"
           cx="17.799999" />
        <ellipse
           id="ellipse8"
           ry="14.4"
           rx="15"
           cy="21.4"
           cx="17.799999" />
        <ellipse
           id="ellipse10"
           ry="14.9"
           rx="15.5"
           cy="16.9"
           cx="34.200001" />
        <ellipse
           id="ellipse12"
           ry="12.5"
           rx="13"
           cy="28.5"
           cx="49" />
        <ellipse
           id="ellipse14"
           ry="12.5"
           rx="13"
           cy="40.200001"
           cx="39.5" />
      </g>
      <g
         id="g16"
         style="fill:#947151">
        <path
           id="path18"
           d="M 28.9,64 C 29.2,60 28.6,55.8 28,51.4 27.4,47 26.6,42.5 26.6,37.9 c -0.1,-4.6 0.5,-9.3 2.1,-13.6 1.5,-4.3 3.8,-8.2 6.5,-11.7 -2.3,3.8 -4,7.9 -4.9,12.2 -0.9,4.2 -0.9,8.6 -0.3,12.8 0.6,4.2 1.8,8.4 3.1,12.7 1.2,4.3 2.5,8.8 2.8,13.7 l -7,0"
           inkscape:connector-curvature="0" />
        <path
           id="path22"
           d="m 27.8,34.8 c -1.5,-0.9 -2.8,-1.9 -4,-2.9 -1.2,-1.1 -2.4,-2.3 -3.4,-3.5 -2,-2.6 -3.5,-5.7 -3.7,-8.9 0.5,3.2 2.3,6 4.5,8.2 1.1,1.1 2.3,2.1 3.6,3 1.3,0.9 2.7,1.7 4,2.3 l -1,1.8"
           inkscape:connector-curvature="0" />
        <path
           id="path24"
           d="M 29.4,46.2 C 27.7,46.1 26.1,45.8 24.5,45.4 22.9,45 21.4,44.4 19.9,43.6 17,42 14.5,39.7 13,36.8 c 1.8,2.7 4.4,4.7 7.3,5.8 1.4,0.6 3,1 4.5,1.3 1.5,0.3 3.1,0.4 4.6,0.3 l 0,2"
           inkscape:connector-curvature="0" />
      </g>
      <g
         id="g26"
         style="fill:#75a843">
        <path
           id="path28"
           d="m 9.8,41.9 c 0,2.2 -1.8,4 -1.8,4 0,0 -1.8,-1.8 -1.8,-4 0,-2.2 1.8,-4 1.8,-4 0,0 1.8,1.8 1.8,4"
           inkscape:connector-curvature="0" />
        <path
           id="path30"
           d="m 56.1,33.3 c 0,2.2 -1.8,4 -1.8,4 0,0 -1.8,-1.8 -1.8,-4 0,-2.2 1.8,-4 1.8,-4 0,0 1.8,1.8 1.8,4"
           inkscape:connector-curvature="0" />
        <path
           id="path32"
           d="m 14.8,47 c 0,2.2 -1.8,4 -1.8,4 0,0 -1.8,-1.8 -1.8,-4 0,-2.2 1.8,-4 1.8,-4 0,0 1.8,1.8 1.8,4"
           inkscape:connector-curvature="0" />
        <path
           id="path34"
           d="m 9.8,20.9 c 0,2.2 -1.8,4 -1.8,4 0,0 -1.8,-1.8 -1.8,-4 0,-2.2 1.8,-4 1.8,-4 0,0 1.8,1.8 1.8,4"
           inkscape:connector-curvature="0" />
        <path
           id="path36"
           d="m 14.8,15.1 c 0,2.2 -1.8,4 -1.8,4 0,0 -1.8,-1.8 -1.8,-4 0,-2.2 1.8,-4 1.8,-4 0,0 1.8,1.8 1.8,4"
           inkscape:connector-curvature="0" />
        <path
           id="path38"
           d="m 40.5,18 c 0,2.2 -1.8,4 -1.8,4 0,0 -1.7,-1.8 -1.7,-4 0,-2.2 1.8,-4 1.8,-4 0,0 1.7,1.8 1.7,4"
           inkscape:connector-curvature="0" />
        <path
           id="path40"
           d="m 45.5,12.6 c 0,2.2 -1.8,4 -1.8,4 0,0 -1.8,-1.8 -1.8,-4 0,-2.2 1.8,-4 1.8,-4 0,0 1.8,1.8 1.8,4"
           inkscape:connector-curvature="0" />
        <path
           id="path42"
           d="m 22.2,35.8 c 0,2.2 -1.8,4 -1.8,4 0,0 -1.8,-1.8 -1.8,-4 0,-2.2 1.8,-4 1.8,-4 0,0 1.8,1.8 1.8,4"
           inkscape:connector-curvature="0" />
        <path
           id="path44"
           d="m 16.6,30.7 c 0,2.2 -1.8,4 -1.8,4 0,0 -1.8,-1.8 -1.8,-4 0,-2.2 1.8,-4 1.8,-4 0,0 1.8,1.8 1.8,4"
           inkscape:connector-curvature="0" />
        <path
           id="path46"
           d="m 26.1,20.9 c 0,2.2 -1.8,4 -1.8,4 0,0 -1.8,-1.8 -1.8,-4 0,-2.2 1.8,-4 1.8,-4 0,0 1.8,1.8 1.8,4"
           inkscape:connector-curvature="0" />
        <path
           id="path48"
           d="m 30,14 c 0,2.2 -1.8,4 -1.8,4 0,0 -1.8,-1.8 -1.8,-4 0,-2.2 1.8,-4 1.8,-4 0,0 1.8,1.8 1.8,4"
           inkscape:connector-curvature="0" />
        <path
           id="path50"
           d="m 35.4,30.7 c 0,2.2 -1.8,4 -1.8,4 0,0 -1.8,-1.8 -1.8,-4 0,-2.2 1.8,-4 1.8,-4 0,0 1.8,1.8 1.8,4"
           inkscape:connector-curvature="0" />
        <path
           id="path52"
           d="m 49,39.8 c 0,2.2 -1.8,4 -1.8,4 0,0 -1.8,-1.8 -1.8,-4 0,-2.2 1.8,-4 1.8,-4 0,0 1.8,1.8 1.8,4"
           inkscape:connector-curvature="0" />
        <path
           id="path54"
           d="m 45.5,23.1 c 0,2.2 -1.8,4 -1.8,4 0,0 -1.8,-1.8 -1.8,-4 0,-2.2 1.8,-4 1.8,-4 0,0 1.8,1.8 1.8,4"
           inkscape:connector-curvature="0" />
        <path
           id="path56"
           d="m 39.5,43 c 0,2.2 -1.8,4 -1.8,4 0,0 -1.8,-1.8 -1.8,-4 0,-2.2 1.8,-4 1.8,-4 0,0 1.8,1.8 1.8,4"
           inkscape:connector-curvature="0" />
        <path
           id="path58"
           d="m 44.2,47.5 c 0,2.2 -1.8,4 -1.8,4 0,0 -1.8,-1.8 -1.8,-4 0,-2.2 1.8,-4 1.8,-4 0,0 1.8,1.8 1.8,4"
           inkscape:connector-curvature="0" />
      </g>
    </g>
  </g>
  <g
     inkscape:groupmode="layer"
     id="layer2"
     inkscape:label="Text"
     style="display:inline"
     sodipodi:insensitive="true">
    <flowRoot
       xml:space="preserve"
       id="flowRoot8720"
       style="font-style:normal;font-variant:normal;font-weight:bold;font-stretch:normal;font-size:12.5px;line-height:100%;font-family:'DejaVu Sans';-inkscape-font-specification:'DejaVu Sans, Bold';text-align:start;letter-spacing:0px;word-spacing:0px;writing-mode:lr-tb;text-anchor:start;fill:#000000;fill-opacity:1;stroke:none;stroke-width:1px;stroke-linecap:butt;stroke-linejoin:miter;stroke-opacity:1"><flowRegion
         id="flowRegion8722"><rect
           id="rect8724"
           width="95.550858"
           height="32.459858"
           x="12.801071"
           y="931.81879"
           style="font-size:12.5px" /></flowRegion><flowPara
         id="flowPara8726" /></flowRoot>    <flowRoot
       xml:space="preserve"
       id="flowRoot8728"
       style="font-style:normal;font-variant:normal;font-weight:bold;font-stretch:normal;font-size:12.5px;line-height:100%;font-family:'DejaVu Sans';-inkscape-font-specification:'DejaVu Sans, Bold';text-align:start;letter-spacing:0px;word-spacing:0px;writing-mode:lr-tb;text-anchor:start;fill:#000000;fill-opacity:1;stroke:none;stroke-width:1px;stroke-linecap:butt;stroke-linejoin:miter;stroke-opacity:1"><flowRegion
         id="flowRegion8730"><rect
           id="rect8732"
           width="92.198189"
           height="39.469971"
           x="19.506393"
           y="933.34271" /></flowRegion><flowPara
         id="flowPara8734" /></flowRoot>    <flowRoot
       xml:space="preserve"
       id="flowRoot8736"
       style="font-style:normal;font-variant:normal;font-weight:bold;font-stretch:normal;font-size:12.5px;line-height:100%;font-family:'DejaVu Sans';-inkscape-font-specification:'DejaVu Sans, Bold';text-align:start;letter-spacing:0px;word-spacing:0px;writing-mode:lr-tb;text-anchor:start;fill:#000000;fill-opacity:1;stroke:none;stroke-width:1px;stroke-linecap:butt;stroke-linejoin:miter;stroke-opacity:1"><flowRegion
         id="flowRegion8738"><rect
           id="rect8740"
           width="97.989151"
           height="28.80241"
           x="15.848945"
           y="935.17145" /></flowRegion><flowPara
         id="flowPara8742" /></flowRoot>    <text
       xml:space="preserve"
       style="font-style:normal;font-variant:normal;font-weight:bold;font-stretch:normal;font-size:12.5px;line-height:100%;font-family:'DejaVu Sans';-inkscape-font-specification:'DejaVu Sans, Bold';text-align:start;letter-spacing:0px;word-spacing:0px;writing-mode:lr-tb;text-anchor:start;fill:#000000;fill-opacity:1;stroke:none;stroke-width:1px;stroke-linecap:butt;stroke-linejoin:miter;stroke-opacity:1"
       x="24.230598"
       y="942.02917"
       id="text8744"
       sodipodi:linespacing="100%"><tspan
         sodipodi:role="line"
         id="tspan8746"
         x="24.230598"
         y="942.02917" /></text>
    <text
       xml:space="preserve"
       style="font-style:normal;font-variant:normal;font-weight:bold;font-stretch:semi-condensed;font-size:24.3397541px;line-height:100%;font-family:'DejaVu Sans';-inkscape-font-specification:'DejaVu Sans Bold Semi-Condensed';text-align:start;letter-spacing:0px;word-spacing:0px;writing-mode:lr-tb;text-anchor:start;fill:#5600b4;fill-opacity:1;stroke:none;stroke-width:1px;stroke-linecap:butt;stroke-linejoin:miter;stroke-opacity:1"
       x="11.464768"
       y="955.01758"
       id="text8748"
       sodipodi:linespacing="100%"><tspan
         sodipodi:role="line"
         id="tspan8750"
         x="11.464768"
         y="955.01758">timo</tspan></text>
    <text
       xml:space="preserve"
       style="font-style:normal;font-variant:normal;font-weight:bold;font-stretch:normal;font-size:12.81780243px;line-height:100%;font-family:'DejaVu Sans';-inkscape-font-specification:'DejaVu Sans Bold';text-align:start;letter-spacing:0px;word-spacing:0px;writing-mode:lr-tb;text-anchor:start;opacity:0.75;fill:#5600b4;fill-opacity:1;stroke:none;stroke-width:1px;stroke-linecap:butt;stroke-linejoin:miter;stroke-opacity:1;filter:url(#filter10376)"
       x="29.699957"
       y="1011.1488"
       id="text8752"
       sodipodi:linespacing="100%"
       transform="matrix(0.96531054,0.26110449,-0.26110449,0.96531054,263.97491,26.381723)"><tspan
         sodipodi:role="line"
         id="tspan8754"
         x="29.699957"
         y="1011.1488">t</tspan></text>
    <text
       xml:space="preserve"
       style="font-style:normal;font-variant:normal;font-weight:bold;font-stretch:normal;font-size:11.84575844px;line-height:100%;font-family:'DejaVu Sans';-inkscape-font-specification:'DejaVu Sans, Bold';text-align:start;letter-spacing:0px;word-spacing:0px;writing-mode:lr-tb;text-anchor:start;opacity:0.75;fill:#5600b4;fill-opacity:1;stroke:none;stroke-width:1px;stroke-linecap:butt;stroke-linejoin:miter;stroke-opacity:1;filter:url(#filter10372)"
       x="49.135098"
       y="1020.7421"
       id="text8756"
       sodipodi:linespacing="100%"
       transform="matrix(0.84483318,0.53502981,-0.53502981,0.84483318,552.52106,130.95865)"
       inkscape:transform-center-x="3.0172413"><tspan
         sodipodi:role="line"
         id="tspan8758"
         x="49.135098"
         y="1020.7421">i</tspan></text>
    <text
       xml:space="preserve"
       style="font-style:normal;font-variant:normal;font-weight:bold;font-stretch:normal;font-size:16.06974792px;line-height:100%;font-family:'DejaVu Sans';-inkscape-font-specification:'DejaVu Sans, Bold';text-align:start;letter-spacing:0px;word-spacing:0px;writing-mode:lr-tb;text-anchor:start;opacity:0.75;fill:#5600b4;fill-opacity:1;stroke:none;stroke-width:1px;stroke-linecap:butt;stroke-linejoin:miter;stroke-opacity:1;filter:url(#filter10368)"
       x="68.442467"
       y="1011.1161"
       id="text8760"
       sodipodi:linespacing="100%"
       transform="matrix(0.89375512,-0.44855523,0.44855523,0.89375512,-440.98771,142.92616)"><tspan
         sodipodi:role="line"
         id="tspan8762"
         x="68.442467"
         y="1011.1161">m</tspan></text>
    <text
       xml:space="preserve"
       style="font-style:normal;font-variant:normal;font-weight:bold;font-stretch:normal;font-size:15.67346954px;line-height:100%;font-family:'DejaVu Sans';-inkscape-font-specification:'DejaVu Sans, Bold';text-align:start;letter-spacing:0px;word-spacing:0px;writing-mode:lr-tb;text-anchor:start;opacity:0.75;fill:#5600b4;fill-opacity:1;stroke:none;stroke-width:1px;stroke-linecap:butt;stroke-linejoin:miter;stroke-opacity:1;filter:url(#filter10364)"
       x="87.805527"
       y="998.92401"
       id="text8764"
       sodipodi:linespacing="100%"
       transform="matrix(0.88994489,-0.45606808,0.45606808,0.88994489,-441.21512,152.61315)"
       inkscape:transform-center-x="1.7241378"
       inkscape:transform-center-y="-2.3706897"><tspan
         sodipodi:role="line"
         id="tspan8766"
         x="87.805527"
         y="998.92401">o</tspan></text>
    <text
       sodipodi:linespacing="100%"
       id="text10221"
       y="955.01758"
       x="68.074768"
       style="font-style:normal;font-variant:normal;font-weight:bold;font-stretch:semi-condensed;font-size:24.3397541px;line-height:100%;font-family:'DejaVu Sans';-inkscape-font-specification:'DejaVu Sans Bold Semi-Condensed';text-align:start;letter-spacing:0px;word-spacing:0px;writing-mode:lr-tb;text-anchor:start;fill:#557e36;fill-opacity:1;stroke:none;stroke-width:1px;stroke-linecap:butt;stroke-linejoin:miter;stroke-opacity:1"
       xml:space="preserve"><tspan
         y="955.01758"
         x="68.074768"
         id="tspan10223"
         sodipodi:role="line"
         style="fill:#557e36;fill-opacity:1">tree</tspan></text>
  </g>
</svg>
