<?xml version="1.0" encoding="UTF-8" standalone="no"?>
<svg
   xmlns:dc="http://purl.org/dc/elements/1.1/"
   xmlns:cc="http://creativecommons.org/ns#"
   xmlns:rdf="http://www.w3.org/1999/02/22-rdf-syntax-ns#"
   xmlns:svg="http://www.w3.org/2000/svg"
   xmlns="http://www.w3.org/2000/svg"
   xmlns:xlink="http://www.w3.org/1999/xlink"
   xmlns:sodipodi="http://sodipodi.sourceforge.net/DTD/sodipodi-0.dtd"
   xmlns:inkscape="http://www.inkscape.org/namespaces/inkscape"
   inkscape:export-ydpi="291.86337"
   inkscape:export-xdpi="291.86337"
   inkscape:export-filename="/home/timo/Documents/avatar.circlex512.png"
   sodipodi:docname="circle.svg"
   inkscape:version="1.0 (6e3e5246a0, 2020-05-07)"
   version="1.1"
   id="svg2"
   viewBox="0 0 157.86401 157.88209"
   height="44.557835mm"
   width="44.552731mm">
  <defs
     id="defs4">
    <linearGradient
       id="linearGradient10225"
       inkscape:collect="always">
      <stop
         id="stop10227"
         offset="0"
         style="stop-color:#000000;stop-opacity:1;" />
      <stop
         id="stop10229"
         offset="1"
         style="stop-color:#000000;stop-opacity:0;" />
    </linearGradient>
    <linearGradient
       gradientUnits="userSpaceOnUse"
       y2="946.64484"
       x2="118.00216"
       y1="946.64484"
       x1="68.360001"
       id="linearGradient10231"
       xlink:href="#linearGradient10225"
       inkscape:collect="always" />
    <filter
       height="1.1286293"
       y="-0.064314663"
       width="1.1228822"
       x="-0.061441142"
       id="filter10364"
       style="color-interpolation-filters:sRGB"
       inkscape:collect="always">
      <feGaussianBlur
         id="feGaussianBlur10366"
         stdDeviation="0.24118"
         inkscape:collect="always" />
    </filter>
    <filter
       height="1.1286293"
       y="-0.064314663"
       width="1.0818745"
       x="-0.040937245"
       id="filter10368"
       style="color-interpolation-filters:sRGB"
       inkscape:collect="always">
      <feGaussianBlur
         id="feGaussianBlur10370"
         stdDeviation="0.24118"
         inkscape:collect="always" />
    </filter>
    <filter
       height="1.1286293"
       y="-0.064314663"
       width="1.5590705"
       x="-0.27953526"
       id="filter10372"
       style="color-interpolation-filters:sRGB"
       inkscape:collect="always">
      <feGaussianBlur
         id="feGaussianBlur10374"
         stdDeviation="0.24118"
         inkscape:collect="always" />
    </filter>
    <filter
       height="1.1286293"
       y="-0.064314663"
       width="1.2043856"
       x="-0.10219281"
       id="filter10376"
       style="color-interpolation-filters:sRGB"
       inkscape:collect="always">
      <feGaussianBlur
         id="feGaussianBlur10378"
         stdDeviation="0.24118"
         inkscape:collect="always" />
    </filter>
  </defs>
  <sodipodi:namedview
     fit-margin-bottom="0"
     fit-margin-right="0"
     fit-margin-left="0"
     fit-margin-top="0"
     inkscape:document-rotation="0"
     inkscape:window-maximized="1"
     inkscape:window-y="27"
     inkscape:window-x="72"
     inkscape:window-height="836"
     inkscape:window-width="1528"
     showgrid="false"
     inkscape:current-layer="g11228"
     inkscape:document-units="px"
     inkscape:cy="-871.44586"
     inkscape:cx="87.63184"
     inkscape:zoom="2.8284271"
     inkscape:pageshadow="2"
     inkscape:pageopacity="0.0"
     borderopacity="1.0"
     bordercolor="#666666"
     pagecolor="#ffffff"
     id="base" />
  <metadata
     id="metadata7">
    <rdf:RDF>
      <cc:Work
         rdf:about="">
        <dc:format>image/svg+xml</dc:format>
        <dc:type
           rdf:resource="http://purl.org/dc/dcmitype/StillImage" />
        <dc:title></dc:title>
      </cc:Work>
    </rdf:RDF>
  </metadata>
  <g
     transform="translate(14.932003,-909.43018)"
     sodipodi:insensitive="true"
     inkscape:groupmode="layer"
     id="g11228"
     inkscape:label="Circle"
     style="display:inline">
    <circle
       r="78.451065"
       cy="988.36218"
       cx="64"
       id="path11294"
       style="opacity:1;fill:#69bee8;fill-opacity:1;fill-rule:nonzero;stroke:#464d51;stroke-width:0.961875;stroke-miterlimit:4;stroke-dasharray:none;stroke-opacity:1" />
  </g>
  <g
     transform="translate(14.932003,-909.43018)"
     sodipodi:insensitive="true"
     style="display:inline"
     inkscape:label="Background"
     id="layer3"
     inkscape:groupmode="layer">
    <path
       sodipodi:arc-type="arc"
       sodipodi:open="true"
       d="m 110.75249,1051.3604 a 78.451065,78.451065 0 0 1 -93.504981,0"
       sodipodi:end="2.2092378"
       sodipodi:start="0.93235489"
       sodipodi:ry="78.451065"
       sodipodi:rx="78.451065"
       sodipodi:cy="988.36218"
       sodipodi:cx="64"
       sodipodi:type="arc"
       style="display:inline;opacity:1;fill:#76b341;fill-opacity:1;fill-rule:nonzero;stroke:#464d51;stroke-opacity:1"
       id="circle11414" />
  </g>
  <g
     transform="translate(14.932003,-909.43018)"
     sodipodi:insensitive="true"
     style="display:inline"
     id="layer1"
     inkscape:groupmode="layer"
     inkscape:label="Icon">
    <g
       transform="matrix(1.4,0,0,1.4,19.200001,961.7622)"
       id="g3550">
      <g
         style="fill:#83bf4f"
         id="g4">
        <ellipse
           cx="17.799999"
           cy="38.299999"
           rx="15.8"
           ry="15.2"
           id="ellipse6" />
        <ellipse
           cx="17.799999"
           cy="21.4"
           rx="15"
           ry="14.4"
           id="ellipse8" />
        <ellipse
           cx="34.200001"
           cy="16.9"
           rx="15.5"
           ry="14.9"
           id="ellipse10" />
        <ellipse
           cx="49"
           cy="28.5"
           rx="13"
           ry="12.5"
           id="ellipse12" />
        <ellipse
           cx="39.5"
           cy="40.200001"
           rx="13"
           ry="12.5"
           id="ellipse14" />
      </g>
      <g
         style="fill:#947151"
         id="g16">
        <path
           inkscape:connector-curvature="0"
           d="M 28.9,64 C 29.2,60 28.6,55.8 28,51.4 27.4,47 26.6,42.5 26.6,37.9 c -0.1,-4.6 0.5,-9.3 2.1,-13.6 1.5,-4.3 3.8,-8.2 6.5,-11.7 -2.3,3.8 -4,7.9 -4.9,12.2 -0.9,4.2 -0.9,8.6 -0.3,12.8 0.6,4.2 1.8,8.4 3.1,12.7 1.2,4.3 2.5,8.8 2.8,13.7 h -7"
           id="path18" />
        <path
           inkscape:connector-curvature="0"
           d="m 27.8,34.8 c -1.5,-0.9 -2.8,-1.9 -4,-2.9 -1.2,-1.1 -2.4,-2.3 -3.4,-3.5 -2,-2.6 -3.5,-5.7 -3.7,-8.9 0.5,3.2 2.3,6 4.5,8.2 1.1,1.1 2.3,2.1 3.6,3 1.3,0.9 2.7,1.7 4,2.3 l -1,1.8"
           id="path22" />
        <path
           inkscape:connector-curvature="0"
           d="M 29.4,46.2 C 27.7,46.1 26.1,45.8 24.5,45.4 22.9,45 21.4,44.4 19.9,43.6 17,42 14.5,39.7 13,36.8 c 1.8,2.7 4.4,4.7 7.3,5.8 1.4,0.6 3,1 4.5,1.3 1.5,0.3 3.1,0.4 4.6,0.3 v 2"
           id="path24" />
      </g>
      <g
         style="fill:#75a843"
         id="g26">
        <path
           inkscape:connector-curvature="0"
           d="m 9.8,41.9 c 0,2.2 -1.8,4 -1.8,4 0,0 -1.8,-1.8 -1.8,-4 0,-2.2 1.8,-4 1.8,-4 0,0 1.8,1.8 1.8,4"
           id="path28" />
        <path
           inkscape:connector-curvature="0"
           d="m 56.1,33.3 c 0,2.2 -1.8,4 -1.8,4 0,0 -1.8,-1.8 -1.8,-4 0,-2.2 1.8,-4 1.8,-4 0,0 1.8,1.8 1.8,4"
           id="path30" />
        <path
           inkscape:connector-curvature="0"
           d="m 14.8,47 c 0,2.2 -1.8,4 -1.8,4 0,0 -1.8,-1.8 -1.8,-4 0,-2.2 1.8,-4 1.8,-4 0,0 1.8,1.8 1.8,4"
           id="path32" />
        <path
           inkscape:connector-curvature="0"
           d="m 9.8,20.9 c 0,2.2 -1.8,4 -1.8,4 0,0 -1.8,-1.8 -1.8,-4 0,-2.2 1.8,-4 1.8,-4 0,0 1.8,1.8 1.8,4"
           id="path34" />
        <path
           inkscape:connector-curvature="0"
           d="m 14.8,15.1 c 0,2.2 -1.8,4 -1.8,4 0,0 -1.8,-1.8 -1.8,-4 0,-2.2 1.8,-4 1.8,-4 0,0 1.8,1.8 1.8,4"
           id="path36" />
        <path
           inkscape:connector-curvature="0"
           d="m 40.5,18 c 0,2.2 -1.8,4 -1.8,4 0,0 -1.7,-1.8 -1.7,-4 0,-2.2 1.8,-4 1.8,-4 0,0 1.7,1.8 1.7,4"
           id="path38" />
        <path
           inkscape:connector-curvature="0"
           d="m 45.5,12.6 c 0,2.2 -1.8,4 -1.8,4 0,0 -1.8,-1.8 -1.8,-4 0,-2.2 1.8,-4 1.8,-4 0,0 1.8,1.8 1.8,4"
           id="path40" />
        <path
           inkscape:connector-curvature="0"
           d="m 22.2,35.8 c 0,2.2 -1.8,4 -1.8,4 0,0 -1.8,-1.8 -1.8,-4 0,-2.2 1.8,-4 1.8,-4 0,0 1.8,1.8 1.8,4"
           id="path42" />
        <path
           inkscape:connector-curvature="0"
           d="m 16.6,30.7 c 0,2.2 -1.8,4 -1.8,4 0,0 -1.8,-1.8 -1.8,-4 0,-2.2 1.8,-4 1.8,-4 0,0 1.8,1.8 1.8,4"
           id="path44" />
        <path
           inkscape:connector-curvature="0"
           d="m 26.1,20.9 c 0,2.2 -1.8,4 -1.8,4 0,0 -1.8,-1.8 -1.8,-4 0,-2.2 1.8,-4 1.8,-4 0,0 1.8,1.8 1.8,4"
           id="path46" />
        <path
           inkscape:connector-curvature="0"
           d="m 30,14 c 0,2.2 -1.8,4 -1.8,4 0,0 -1.8,-1.8 -1.8,-4 0,-2.2 1.8,-4 1.8,-4 0,0 1.8,1.8 1.8,4"
           id="path48" />
        <path
           inkscape:connector-curvature="0"
           d="m 35.4,30.7 c 0,2.2 -1.8,4 -1.8,4 0,0 -1.8,-1.8 -1.8,-4 0,-2.2 1.8,-4 1.8,-4 0,0 1.8,1.8 1.8,4"
           id="path50" />
        <path
           inkscape:connector-curvature="0"
           d="m 49,39.8 c 0,2.2 -1.8,4 -1.8,4 0,0 -1.8,-1.8 -1.8,-4 0,-2.2 1.8,-4 1.8,-4 0,0 1.8,1.8 1.8,4"
           id="path52" />
        <path
           inkscape:connector-curvature="0"
           d="m 45.5,23.1 c 0,2.2 -1.8,4 -1.8,4 0,0 -1.8,-1.8 -1.8,-4 0,-2.2 1.8,-4 1.8,-4 0,0 1.8,1.8 1.8,4"
           id="path54" />
        <path
           inkscape:connector-curvature="0"
           d="m 39.5,43 c 0,2.2 -1.8,4 -1.8,4 0,0 -1.8,-1.8 -1.8,-4 0,-2.2 1.8,-4 1.8,-4 0,0 1.8,1.8 1.8,4"
           id="path56" />
        <path
           inkscape:connector-curvature="0"
           d="m 44.2,47.5 c 0,2.2 -1.8,4 -1.8,4 0,0 -1.8,-1.8 -1.8,-4 0,-2.2 1.8,-4 1.8,-4 0,0 1.8,1.8 1.8,4"
           id="path58" />
      </g>
    </g>
  </g>
  <g
     transform="translate(14.932003,-909.43018)"
     sodipodi:insensitive="true"
     style="display:inline"
     inkscape:label="Text"
     id="layer2"
     inkscape:groupmode="layer">
    <flowRoot
       style="font-style:normal;font-variant:normal;font-weight:bold;font-stretch:normal;line-height:0.01%;font-family:'DejaVu Sans';-inkscape-font-specification:'DejaVu Sans, Bold';text-align:start;letter-spacing:0px;word-spacing:0px;writing-mode:lr-tb;text-anchor:start;fill:#000000;fill-opacity:1;stroke:none;stroke-width:1px;stroke-linecap:butt;stroke-linejoin:miter;stroke-opacity:1"
       id="flowRoot8720"
       xml:space="preserve"><flowRegion
         id="flowRegion8722"><rect
           style="font-size:12.5px"
           y="931.81879"
           x="12.801071"
           height="32.459858"
           width="95.550858"
           id="rect8724" /></flowRegion><flowPara
         style="font-size:12.5px;line-height:1"
         id="flowPara8726"> </flowPara></flowRoot>
    <flowRoot
       style="font-style:normal;font-variant:normal;font-weight:bold;font-stretch:normal;line-height:0.01%;font-family:'DejaVu Sans';-inkscape-font-specification:'DejaVu Sans, Bold';text-align:start;letter-spacing:0px;word-spacing:0px;writing-mode:lr-tb;text-anchor:start;fill:#000000;fill-opacity:1;stroke:none;stroke-width:1px;stroke-linecap:butt;stroke-linejoin:miter;stroke-opacity:1"
       id="flowRoot8728"
       xml:space="preserve"><flowRegion
         id="flowRegion8730"><rect
           y="933.34271"
           x="19.506393"
           height="39.469971"
           width="92.198189"
           id="rect8732" /></flowRegion><flowPara
         style="font-size:12.5px;line-height:1"
         id="flowPara8734"> </flowPara></flowRoot>
    <flowRoot
       style="font-style:normal;font-variant:normal;font-weight:bold;font-stretch:normal;line-height:0.01%;font-family:'DejaVu Sans';-inkscape-font-specification:'DejaVu Sans, Bold';text-align:start;letter-spacing:0px;word-spacing:0px;writing-mode:lr-tb;text-anchor:start;fill:#000000;fill-opacity:1;stroke:none;stroke-width:1px;stroke-linecap:butt;stroke-linejoin:miter;stroke-opacity:1"
       id="flowRoot8736"
       xml:space="preserve"><flowRegion
         id="flowRegion8738"><rect
           y="935.17145"
           x="15.848945"
           height="28.80241"
           width="97.989151"
           id="rect8740" /></flowRegion><flowPara
         style="font-size:12.5px;line-height:1"
         id="flowPara8742"> </flowPara></flowRoot>
    <text
       id="text8744"
       y="942.02917"
       x="24.230598"
       style="font-style:normal;font-variant:normal;font-weight:bold;font-stretch:normal;line-height:0%;font-family:'DejaVu Sans';-inkscape-font-specification:'DejaVu Sans, Bold';text-align:start;letter-spacing:0px;word-spacing:0px;writing-mode:lr-tb;text-anchor:start;fill:#000000;fill-opacity:1;stroke:none;stroke-width:1px;stroke-linecap:butt;stroke-linejoin:miter;stroke-opacity:1"
       xml:space="preserve"><tspan
         style="font-size:12.5px;line-height:1"
         y="942.02917"
         x="24.230598"
         id="tspan8746"
         sodipodi:role="line"> </tspan></text>
    <text
       id="text8748"
       y="955.01758"
       x="11.464768"
       style="font-style:normal;font-variant:normal;font-weight:bold;font-stretch:semi-condensed;line-height:0%;font-family:'DejaVu Sans';-inkscape-font-specification:'DejaVu Sans Bold Semi-Condensed';text-align:start;letter-spacing:0px;word-spacing:0px;writing-mode:lr-tb;text-anchor:start;fill:#5600b4;fill-opacity:1;stroke:none;stroke-width:1px;stroke-linecap:butt;stroke-linejoin:miter;stroke-opacity:1"
       xml:space="preserve"><tspan
         style="font-size:24.3398px;line-height:1"
         y="955.01758"
         x="11.464768"
         id="tspan8750"
         sodipodi:role="line">timo</tspan></text>
    <text
       transform="rotate(15.135609,32.701013,1006.6488)"
       id="text8752"
       y="1011.1488"
       x="29.699957"
       style="font-style:normal;font-variant:normal;font-weight:bold;font-stretch:normal;line-height:0%;font-family:'DejaVu Sans';-inkscape-font-specification:'DejaVu Sans Bold';text-align:start;letter-spacing:0px;word-spacing:0px;writing-mode:lr-tb;text-anchor:start;opacity:0.75;fill:#5600b4;fill-opacity:1;stroke:none;stroke-width:1px;stroke-linecap:butt;stroke-linejoin:miter;stroke-opacity:1;filter:url(#filter10376)"
       xml:space="preserve"><tspan
         style="font-size:12.8178px;line-height:1"
         y="1011.1488"
         x="29.699957"
         id="tspan8754"
         sodipodi:role="line">t</tspan></text>
    <text
       inkscape:transform-center-x="3.0172413"
       transform="rotate(32.345933,50.48165,1018.0517)"
       id="text8756"
       y="1020.7421"
       x="49.135098"
       style="font-style:normal;font-variant:normal;font-weight:bold;font-stretch:normal;line-height:0%;font-family:'DejaVu Sans';-inkscape-font-specification:'DejaVu Sans, Bold';text-align:start;letter-spacing:0px;word-spacing:0px;writing-mode:lr-tb;text-anchor:start;opacity:0.75;fill:#5600b4;fill-opacity:1;stroke:none;stroke-width:1px;stroke-linecap:butt;stroke-linejoin:miter;stroke-opacity:1;filter:url(#filter10372)"
       xml:space="preserve"><tspan
         style="font-size:11.8458px;line-height:1"
         y="1020.7421"
         x="49.135098"
         id="tspan8758"
         sodipodi:role="line">i</tspan></text>
    <text
       transform="rotate(-26.651027,81.2161,1002.366)"
       id="text8760"
       y="1011.1161"
       x="68.442467"
       style="font-style:normal;font-variant:normal;font-weight:bold;font-stretch:normal;line-height:0%;font-family:'DejaVu Sans';-inkscape-font-specification:'DejaVu Sans, Bold';text-align:start;letter-spacing:0px;word-spacing:0px;writing-mode:lr-tb;text-anchor:start;opacity:0.75;fill:#5600b4;fill-opacity:1;stroke:none;stroke-width:1px;stroke-linecap:butt;stroke-linejoin:miter;stroke-opacity:1;filter:url(#filter10368)"
       xml:space="preserve"><tspan
         style="font-size:16.0697px;line-height:1"
         y="1011.1161"
         x="68.442467"
         id="tspan8762"
         sodipodi:role="line">m</tspan></text>
    <text
       inkscape:transform-center-y="-2.3706897"
       inkscape:transform-center-x="1.7241378"
       transform="rotate(-27.133677,95.606681,990.50371)"
       id="text8764"
       y="998.92401"
       x="87.805527"
       style="font-style:normal;font-variant:normal;font-weight:bold;font-stretch:normal;line-height:0%;font-family:'DejaVu Sans';-inkscape-font-specification:'DejaVu Sans, Bold';text-align:start;letter-spacing:0px;word-spacing:0px;writing-mode:lr-tb;text-anchor:start;opacity:0.75;fill:#5600b4;fill-opacity:1;stroke:none;stroke-width:1px;stroke-linecap:butt;stroke-linejoin:miter;stroke-opacity:1;filter:url(#filter10364)"
       xml:space="preserve"><tspan
         style="font-size:15.6735px;line-height:1"
         y="998.92401"
         x="87.805527"
         id="tspan8766"
         sodipodi:role="line">o</tspan></text>
    <text
       xml:space="preserve"
       style="font-style:normal;font-variant:normal;font-weight:bold;font-stretch:semi-condensed;line-height:0%;font-family:'DejaVu Sans';-inkscape-font-specification:'DejaVu Sans Bold Semi-Condensed';text-align:start;letter-spacing:0px;word-spacing:0px;writing-mode:lr-tb;text-anchor:start;fill:#557e36;fill-opacity:1;stroke:none;stroke-width:1px;stroke-linecap:butt;stroke-linejoin:miter;stroke-opacity:1"
       x="68.074768"
       y="955.01758"
       id="text10221"><tspan
         style="font-size:24.3398px;line-height:1;fill:#557e36;fill-opacity:1"
         sodipodi:role="line"
         id="tspan10223"
         x="68.074768"
         y="955.01758">tree</tspan></text>
  </g>
</svg>
